<?xml version="1.0" encoding="UTF-8"?>
<!DOCTYPE svg PUBLIC "-//W3C//DTD SVG 1.1//EN" "http://www.w3.org/Graphics/SVG/1.1/DTD/svg11.dtd">
<svg xmlns="http://www.w3.org/2000/svg" version="1.1" width="1000px" height="1000px" style="shape-rendering:geometricPrecision; text-rendering:geometricPrecision; image-rendering:optimizeQuality; fill-rule:evenodd; clip-rule:evenodd" xmlns:xlink="http://www.w3.org/1999/xlink">
<g><path style="opacity:0.677" fill="#ff5261" d="M 496.5,281.5 C 515.429,279.594 523.596,287.927 521,306.5C 513.39,318.944 503.224,321.444 490.5,314C 480.875,300.923 482.875,290.09 496.5,281.5 Z"/></g>
<g><path style="opacity:0.789" fill="#6219c3" d="M 473.5,335.5 C 420.686,340.48 383.519,367.146 362,415.5C 355.747,433.782 352.913,452.449 353.5,471.5C 335.841,432.295 340.674,395.962 368,362.5C 397.729,332.539 432.896,323.539 473.5,335.5 Z"/></g>
<g><path style="opacity:0.789" fill="#faa436" d="M 601.5,466.5 C 600.603,403.617 570.603,361.617 511.5,340.5C 528.958,330.648 547.625,327.815 567.5,332C 601.191,341.357 621.357,363.19 628,397.5C 630.57,421.787 623.903,443.12 608,461.5C 606.242,463.765 604.075,465.432 601.5,466.5 Z"/></g>
<g><path style="opacity:0.749" fill="#0b4bf0" d="M 474.5,335.5 C 487.099,335.525 499.432,337.192 511.5,340.5C 507.65,343.261 503.983,346.261 500.5,349.5C 500.167,349.5 499.833,349.5 499.5,349.5C 491.584,344.043 483.251,339.377 474.5,335.5 Z"/></g>
<g><path style="opacity:0.961" fill="#5221cb" d="M 473.5,335.5 C 473.833,335.5 474.167,335.5 474.5,335.5C 483.251,339.377 491.584,344.043 499.5,349.5C 489.823,359.164 482.156,370.164 476.5,382.5C 446.665,379.162 425.165,390.829 412,417.5C 402.646,450.131 412.48,474.964 441.5,492C 448.21,494.928 455.21,496.428 462.5,496.5C 462.171,505.592 462.838,514.592 464.5,523.5C 417.017,532.005 380.851,515.672 356,474.5C 355.329,473.748 354.496,473.414 353.5,473.5C 353.5,472.833 353.5,472.167 353.5,471.5C 352.913,452.449 355.747,433.782 362,415.5C 383.519,367.146 420.686,340.48 473.5,335.5 Z"/></g>
<g><path style="opacity:0.961" fill="#d19555" d="M 511.5,340.5 C 570.603,361.617 600.603,403.617 601.5,466.5C 601.5,466.833 601.5,467.167 601.5,467.5C 599.589,468.075 597.922,469.075 596.5,470.5C 596.167,470.5 595.833,470.5 595.5,470.5C 582.912,449.201 564.245,437.535 539.5,435.5C 539.5,435.167 539.5,434.833 539.5,434.5C 540.821,399.483 527.821,371.15 500.5,349.5C 503.983,346.261 507.65,343.261 511.5,340.5 Z"/></g>
<g><path style="opacity:0.992" fill="#7932ac" d="M 499.5,349.5 C 499.833,349.5 500.167,349.5 500.5,349.5C 527.821,371.15 540.821,399.483 539.5,434.5C 533.833,434.5 528.167,434.5 522.5,434.5C 518.828,406.829 503.494,389.496 476.5,382.5C 482.156,370.164 489.823,359.164 499.5,349.5 Z"/></g>
<g><path style="opacity:1" fill="#ebddf7" d="M 476.5,382.5 C 503.494,389.496 518.828,406.829 522.5,434.5C 523.225,448.267 519.892,460.933 512.5,472.5C 515.323,477.588 519.657,479.921 525.5,479.5C 526.833,480.5 528.167,481.5 529.5,482.5C 538.798,492.298 548.298,501.965 558,511.5C 558.79,514.634 558.457,517.634 557,520.5C 553.5,524 550,527.5 546.5,531C 543.167,533 539.833,533 536.5,531C 525.937,520.605 515.604,510.105 505.5,499.5C 504.363,497.161 504.196,494.828 505,492.5C 502.984,490.316 500.817,488.316 498.5,486.5C 487.586,493.693 475.586,497.026 462.5,496.5C 455.21,496.428 448.21,494.928 441.5,492C 412.48,474.964 402.646,450.131 412,417.5C 425.165,390.829 446.665,379.162 476.5,382.5 Z"/></g>
<g><path style="opacity:0.961" fill="#5b2bcd" d="M 475.5,388.5 C 475.5,390.167 475.5,391.833 475.5,393.5C 445.201,390.727 426.367,404.06 419,433.5C 418.796,464.452 433.963,482.119 464.5,486.5C 464.371,488.216 464.038,489.883 463.5,491.5C 436.999,489.327 420.499,475.327 414,449.5C 410.781,420.43 422.615,400.264 449.5,389C 458.282,386.071 466.949,385.905 475.5,388.5 Z"/></g>
<g><path style="opacity:0.992" fill="#7e3bb1" d="M 475.5,388.5 C 501.25,394.249 515.25,410.249 517.5,436.5C 515.784,436.629 514.117,436.962 512.5,437.5C 509.522,414.863 497.188,400.196 475.5,393.5C 475.5,391.833 475.5,390.167 475.5,388.5 Z"/></g>
<g><path style="opacity:1" fill="#eaddf8" d="M 475.5,393.5 C 497.188,400.196 509.522,414.863 512.5,437.5C 510.535,467.498 494.535,483.832 464.5,486.5C 433.963,482.119 418.796,464.452 419,433.5C 426.367,404.06 445.201,390.727 475.5,393.5 Z"/></g>
<g><path style="opacity:0.961" fill="#5423cb" d="M 473.5,398.5 C 473.5,399.833 473.5,401.167 473.5,402.5C 468.489,402.334 463.489,402.501 458.5,403C 457.663,404.011 457.33,405.178 457.5,406.5C 461.846,406.334 466.179,406.501 470.5,407C 471.737,407.232 472.737,407.732 473.5,408.5C 473.661,424.153 477.994,438.486 486.5,451.5C 478.177,459.478 471.844,468.811 467.5,479.5C 465.283,480.369 462.95,480.702 460.5,480.5C 443.933,478.112 432.433,469.112 426,453.5C 420.455,433.828 425.622,417.661 441.5,405C 451.204,398.156 461.87,395.989 473.5,398.5 Z"/></g>
<g><path style="opacity:0.992" fill="#7933ae" d="M 473.5,398.5 C 494.495,404.157 505.828,417.823 507.5,439.5C 500.002,442.672 493.002,446.672 486.5,451.5C 477.994,438.486 473.661,424.153 473.5,408.5C 479.287,409.394 484.287,411.894 488.5,416C 489.793,416.49 491.127,416.657 492.5,416.5C 492.919,413.675 491.919,411.509 489.5,410C 484.458,406.643 479.124,404.143 473.5,402.5C 473.5,401.167 473.5,399.833 473.5,398.5 Z"/></g>
<g><path style="opacity:1" fill="#ebe0fa" d="M 473.5,402.5 C 479.124,404.143 484.458,406.643 489.5,410C 491.919,411.509 492.919,413.675 492.5,416.5C 491.127,416.657 489.793,416.49 488.5,416C 484.287,411.894 479.287,409.394 473.5,408.5C 472.737,407.732 471.737,407.232 470.5,407C 466.179,406.501 461.846,406.334 457.5,406.5C 457.33,405.178 457.663,404.011 458.5,403C 463.489,402.501 468.489,402.334 473.5,402.5 Z"/></g>
<g><path style="opacity:1" fill="#e3d6f9" d="M 448.5,405.5 C 449.873,405.343 451.207,405.51 452.5,406C 453.451,406.718 453.617,407.551 453,408.5C 448.71,412.322 443.876,414.988 438.5,416.5C 438.343,415.127 438.51,413.793 439,412.5C 442.068,409.917 445.235,407.584 448.5,405.5 Z"/></g>
<g><path style="opacity:0.683" fill="#004bf1" d="M 662.5,426.5 C 683.074,424.906 692.241,434.239 690,454.5C 683.583,467.425 673.417,471.591 659.5,467C 648.32,460.472 644.82,450.972 649,438.5C 651.85,432.514 656.35,428.514 662.5,426.5 Z"/></g>
<g><path style="opacity:1" fill="#e44e72" d="M 522.5,434.5 C 528.167,434.5 533.833,434.5 539.5,434.5C 539.5,434.833 539.5,435.167 539.5,435.5C 537.849,451.119 533.183,465.785 525.5,479.5C 519.657,479.921 515.323,477.588 512.5,472.5C 519.892,460.933 523.225,448.267 522.5,434.5 Z"/></g>
<g><path style="opacity:0.992" fill="#f5605f" d="M 539.5,435.5 C 564.245,437.535 582.912,449.201 595.5,470.5C 585.558,478.297 574.225,483.13 561.5,485C 550.604,486.231 539.937,485.398 529.5,482.5C 528.167,481.5 526.833,480.5 525.5,479.5C 533.183,465.785 537.849,451.119 539.5,435.5 Z"/></g>
<g><path style="opacity:0.666" fill="#6219c3" d="M 317.5,450.5 C 326.466,449.705 330.633,453.705 330,462.5C 327.185,468.169 322.685,470.002 316.5,468C 311.845,465.103 310.345,460.937 312,455.5C 313.73,453.598 315.563,451.931 317.5,450.5 Z"/></g>
<g><path style="opacity:0.992" fill="#de4a76" d="M 507.5,439.5 C 505.578,464.37 492.244,478.037 467.5,480.5C 467.5,480.167 467.5,479.833 467.5,479.5C 471.844,468.811 478.177,459.478 486.5,451.5C 493.002,446.672 500.002,442.672 507.5,439.5 Z"/></g>
<g><path style="opacity:0.705" fill="#234dea" d="M 601.5,467.5 C 601.354,471.519 601.021,475.519 600.5,479.5C 598.375,476.912 597.042,473.912 596.5,470.5C 597.922,469.075 599.589,468.075 601.5,467.5 Z"/></g>
<g><path style="opacity:0.992" fill="#e04f79" d="M 517.5,436.5 C 517.688,442.888 517.188,449.222 516,455.5C 513.222,461.557 510.055,467.391 506.5,473C 508.615,476.118 511.115,478.952 514,481.5C 513.253,484.445 511.42,486.778 508.5,488.5C 505.468,485.632 502.302,482.965 499,480.5C 488.499,488.327 476.665,491.994 463.5,491.5C 464.038,489.883 464.371,488.216 464.5,486.5C 494.535,483.832 510.535,467.498 512.5,437.5C 514.117,436.962 515.784,436.629 517.5,436.5 Z"/></g>
<g><path style="opacity:0.961" fill="#d4517a" d="M 595.5,470.5 C 595.833,470.5 596.167,470.5 596.5,470.5C 597.042,473.912 598.375,476.912 600.5,479.5C 600.5,479.833 600.5,480.167 600.5,480.5C 590.151,526.176 563.484,558.176 520.5,576.5C 520.167,576.5 519.833,576.5 519.5,576.5C 491.082,569.418 472.749,551.751 464.5,523.5C 479.055,519.389 492.388,512.889 504.5,504C 505.38,502.644 505.714,501.144 505.5,499.5C 515.604,510.105 525.937,520.605 536.5,531C 539.833,533 543.167,533 546.5,531C 550,527.5 553.5,524 557,520.5C 558.457,517.634 558.79,514.634 558,511.5C 548.298,501.965 538.798,492.298 529.5,482.5C 539.937,485.398 550.604,486.231 561.5,485C 574.225,483.13 585.558,478.297 595.5,470.5 Z"/></g>
<g><path style="opacity:0.652" fill="#ff5262" d="M 626.5,473.5 C 639.124,473.263 643.29,478.93 639,490.5C 631.547,496.424 625.214,495.424 620,487.5C 618.669,481.163 620.836,476.497 626.5,473.5 Z"/></g>
<g><path style="opacity:0.789" fill="#034bf2" d="M 353.5,473.5 C 354.496,473.414 355.329,473.748 356,474.5C 380.851,515.672 417.017,532.005 464.5,523.5C 472.749,551.751 491.082,569.418 519.5,576.5C 472.95,591.356 430.95,583.19 393.5,552C 370.778,530.724 357.444,504.557 353.5,473.5 Z"/></g>
<g><path style="opacity:0.976" fill="#a376d6" d="M 467.5,479.5 C 467.5,479.833 467.5,480.167 467.5,480.5C 465.167,481.833 462.833,481.833 460.5,480.5C 462.95,480.702 465.283,480.369 467.5,479.5 Z"/></g>
<g><path style="opacity:0.777" fill="#fe5261" d="M 600.5,480.5 C 611.022,513.096 603.356,540.596 577.5,563C 560.411,575.522 541.411,580.022 520.5,576.5C 563.484,558.176 590.151,526.176 600.5,480.5 Z"/></g>
<g><path style="opacity:0.961" fill="#d4527b" d="M 520.5,483.5 C 521.552,483.351 522.552,483.517 523.5,484C 533.333,493.833 543.167,503.667 553,513.5C 553.667,514.833 553.667,516.167 553,517.5C 549.833,520.667 546.667,523.833 543.5,527C 542.167,527.667 540.833,527.667 539.5,527C 529.667,517.167 519.833,507.333 510,497.5C 509.333,496.5 509.333,495.5 510,494.5C 513.704,490.964 517.204,487.298 520.5,483.5 Z"/></g>
<g><path style="opacity:0.992" fill="#de4a77" d="M 505.5,499.5 C 505.714,501.144 505.38,502.644 504.5,504C 492.388,512.889 479.055,519.389 464.5,523.5C 462.838,514.592 462.171,505.592 462.5,496.5C 475.586,497.026 487.586,493.693 498.5,486.5C 500.817,488.316 502.984,490.316 505,492.5C 504.196,494.828 504.363,497.161 505.5,499.5 Z"/></g>
<g><path style="opacity:0.669" fill="#fba535" d="M 353.5,551.5 C 366.428,551.562 370.928,557.562 367,569.5C 361.873,574.994 356.039,575.828 349.5,572C 345.204,567.485 344.37,562.319 347,556.5C 348.965,554.45 351.132,552.783 353.5,551.5 Z"/></g>
<g><path style="opacity:0.959" fill="#24054c" d="M 388.5,635.5 C 395.425,634.019 398.925,636.686 399,643.5C 399.135,656.957 397.801,670.29 395,683.5C 394.28,690.536 394.447,697.536 395.5,704.5C 404.931,705.354 413.931,703.854 422.5,700C 429.979,698.816 433.813,701.982 434,709.5C 431.635,712.869 428.468,715.036 424.5,716C 410.423,717.031 396.423,718.365 382.5,720C 380.513,718.681 379.346,716.848 379,714.5C 378.654,708.377 378.487,702.377 378.5,696.5C 377.019,700.733 375.852,705.067 375,709.5C 374.117,712.102 372.617,714.269 370.5,716C 343.974,726.891 330.308,717.891 329.5,689C 329.098,671.456 336.431,658.456 351.5,650C 360.527,646.567 369.194,647.401 377.5,652.5C 380.456,655.856 380.123,658.689 376.5,661C 371.143,661.678 365.809,661.511 360.5,660.5C 356.456,661.032 353.289,663.032 351,666.5C 344.979,676.898 343.312,687.898 346,699.5C 348.248,706.106 352.748,708.939 359.5,708C 365.179,702.298 364.679,697.464 358,693.5C 357.333,691.5 357.333,689.5 358,687.5C 364.889,681.838 371.889,681.505 379,686.5C 379.832,670.346 381.832,654.346 385,638.5C 386.145,637.364 387.312,636.364 388.5,635.5 Z"/></g>
<g><path style="opacity:0.946" fill="#24054c" d="M 458.5,635.5 C 461.448,635.223 464.281,635.556 467,636.5C 472.895,651.744 477.395,667.411 480.5,683.5C 481.786,685.29 483.286,686.957 485,688.5C 485.361,691.437 484.861,694.27 483.5,697C 485.423,702.518 486.756,708.185 487.5,714C 487.695,716.352 487.028,718.352 485.5,720C 482.833,720.667 480.167,720.667 477.5,720C 476.299,719.097 475.465,717.931 475,716.5C 473.985,711.406 472.652,706.406 471,701.5C 463.819,696.119 457.152,696.786 451,703.5C 449.773,709.093 447.939,714.426 445.5,719.5C 442.5,720.833 439.5,720.833 436.5,719.5C 435.271,713.72 435.771,708.053 438,702.5C 442.999,683.84 447.999,665.173 453,646.5C 453.797,642.25 455.63,638.583 458.5,635.5 Z M 460.5,664.5 C 466.102,670.91 467.936,678.243 466,686.5C 461.817,689.382 457.983,689.049 454.5,685.5C 457.455,678.766 459.455,671.766 460.5,664.5 Z"/></g>
<g><path style="opacity:0.948" fill="#24054c" d="M 524.5,635.5 C 535.757,634.212 546.424,636.045 556.5,641C 559.354,644.6 558.687,647.6 554.5,650C 552.722,650.704 550.888,651.204 549,651.5C 543.336,650.334 537.836,648.667 532.5,646.5C 531.113,657.081 532.28,667.415 536,677.5C 541.745,677.746 547.578,677.912 553.5,678C 557.444,679.965 558.444,682.965 556.5,687C 551.631,688.535 546.631,689.535 541.5,690C 540.257,691.154 539.257,692.488 538.5,694C 540.236,699.643 542.402,705.143 545,710.5C 546.113,719.541 542.28,722.541 533.5,719.5C 532.667,718.5 531.833,717.5 531,716.5C 528.972,709.05 526.639,701.716 524,694.5C 522.477,692.38 520.644,692.047 518.5,693.5C 513.85,692.726 512.35,690.06 514,685.5C 517.419,683.584 519.919,680.918 521.5,677.5C 517.167,665.171 515.334,652.504 516,639.5C 518.682,637.671 521.516,636.337 524.5,635.5 Z"/></g>
<g><path style="opacity:0.956" fill="#25054c" d="M 603.5,635.5 C 613.506,635.334 623.506,635.5 633.5,636C 636.908,641.516 635.575,645.516 629.5,648C 624.348,648.4 619.515,649.567 615,651.5C 611.733,673.042 609.733,694.708 609,716.5C 605.053,720.66 600.719,721.327 596,718.5C 595.333,709.833 595.333,701.167 596,692.5C 597.378,678.512 598.544,664.512 599.5,650.5C 594.193,652.148 588.86,653.815 583.5,655.5C 581.303,655.152 579.47,654.152 578,652.5C 576.375,656.332 575.375,660.332 575,664.5C 574.677,681.174 574.677,697.841 575,714.5C 567.39,717.957 562.39,715.624 560,707.5C 559.11,688.469 559.443,669.469 561,650.5C 561.743,645.59 564.576,642.923 569.5,642.5C 572.764,642.974 575.598,644.307 578,646.5C 580.483,643.495 583.65,641.328 587.5,640C 592.874,638.16 598.207,636.66 603.5,635.5 Z"/></g>
</svg>
